<?xml version="1.0" encoding="utf-8"?>
<!-- Generator: Adobe Illustrator 23.0.4, SVG Export Plug-In . SVG Version: 6.00 Build 0)  -->
<svg version="1.1" xmlns="http://www.w3.org/2000/svg" xmlns:xlink="http://www.w3.org/1999/xlink" x="0px" y="0px"
	 viewBox="0 0 497.79 102.86" style="enable-background:new 0 0 497.79 102.86;" xml:space="preserve">
<style type="text/css">
	.st0{fill:#FFFFFF;}
</style>
<g id="Capa_1">
	<g>
		<path class="st0" d="M20.46,57.76c-7.99-3.04-13.39-6.24-16.22-9.59C1.41,44.82,0,40.32,0,34.66c0-7.27,2.33-12.98,6.98-17.13
			c4.65-4.15,11.05-6.23,19.17-6.23c3.69,0,7.38,0.42,11.06,1.26c3.69,0.84,7.34,2.09,10.96,3.73v15.47
			c-3.4-2.4-6.86-4.22-10.37-5.48c-3.51-1.25-6.98-1.88-10.42-1.88c-3.83,0-6.77,0.77-8.81,2.31c-2.04,1.54-3.06,3.74-3.06,6.61
			c0,2.22,0.74,4.06,2.23,5.51c1.49,1.45,4.59,3.05,9.32,4.81l6.82,2.58c6.45,2.36,11.19,5.5,14.23,9.4
			c3.04,3.9,4.57,8.83,4.57,14.77c0,8.09-2.39,14.14-7.17,18.13c-4.78,3.99-12,5.99-21.67,5.99c-3.97,0-7.96-0.48-11.95-1.42
			c-3.99-0.95-7.85-2.35-11.57-4.22V72.48c4.22,3.01,8.32,5.25,12.27,6.71c3.96,1.47,7.87,2.2,11.74,2.2c3.9,0,6.93-0.89,9.08-2.66
			s3.22-4.25,3.22-7.44c0-2.4-0.72-4.5-2.15-6.31c-1.43-1.81-3.51-3.23-6.23-4.27L20.46,57.76z"/>
		<polygon class="st0" points="122.78,26.71 122.78,12.75 72.83,12.75 72.83,26.71 88.67,26.71 		"/>
		<rect x="72.83" y="44.01" class="st0" width="46.73" height="13.96"/>
		<rect x="72.83" y="78.98" class="st0" width="49.95" height="13.96"/>
		<path class="st0" d="M140.93,12.75h17.03l22.34,58.28V12.75h13.96v80.19h-16.92L154.9,34.66v58.28h-13.96V12.75z"/>
		<path class="st0" d="M396.38,2.37c-4.73,8.57-8.24,16.88-10.53,24.91c-2.29,8.03-3.44,16.07-3.44,24.1
			c0,7.96,1.15,15.99,3.44,24.08c2.29,8.09,5.8,16.44,10.53,25.04h-12.25c-5.69-8.29-9.92-16.45-12.68-24.51
			c-2.76-8.05-4.13-16.26-4.13-24.61c0-8.32,1.39-16.53,4.16-24.61c2.78-8.09,6.99-16.22,12.65-24.4H396.38z"/>
		<path class="st0" d="M442.79,55.07c1.58,0.32,2.95,1.07,4.11,2.23c1.16,1.16,2.59,3.43,4.27,6.79l14.5,28.84h-17.4l-9.67-20.25
			c-0.29-0.57-0.66-1.36-1.13-2.36c-2.83-6.05-6.16-9.08-9.99-9.08h-5.05v31.69h-15.84V12.75h22.88c10.31,0,17.72,1.83,22.21,5.48
			c4.49,3.65,6.74,9.6,6.74,17.83c0,5.51-1.34,9.9-4.03,13.16C451.71,52.48,447.84,54.43,442.79,55.07z M422.43,26.07v21.86h7.47
			c4.33,0,7.44-0.85,9.32-2.55c1.88-1.7,2.82-4.5,2.82-8.41c0-3.9-0.93-6.7-2.79-8.38c-1.86-1.68-4.98-2.52-9.35-2.52H422.43z"/>
		<path class="st0" d="M468.74,2.37h12.25c5.66,8.18,9.87,16.31,12.65,24.4c2.77,8.09,4.16,16.29,4.16,24.61
			c0,8.36-1.38,16.56-4.14,24.61c-2.76,8.05-6.98,16.22-12.68,24.51h-12.25c4.73-8.61,8.24-16.96,10.53-25.04
			c2.29-8.09,3.44-16.11,3.44-24.08c0-8.03-1.15-16.07-3.44-24.1C476.97,19.24,473.46,10.94,468.74,2.37z"/>
	</g>
</g>
<g id="Capa_2">
	<g>
		<path class="st0" d="M212.48,51.47c0.12-13.88,4.46-26.34,12.64-37.5c3.6-4.91,7.83-9.21,12.54-13.05
			c1.71-1.39,4.72-1.19,6.28,0.45c0.84,0.88,1.63,1.81,2.38,2.77c1.33,1.71,0.96,3.93-0.73,5.48c-2.2,2.01-4.45,3.98-6.47,6.17
			c-6.96,7.56-11.6,16.38-13.26,26.55c-2.85,17.46,2.02,32.66,13.96,45.62c1.71,1.85,3.64,3.49,5.48,5.21
			c1.33,1.25,1.94,2.71,1.38,4.51c-0.14,0.46-0.43,0.9-0.73,1.29c-0.53,0.69-1.12,1.33-1.69,1.99c-1.96,2.27-4.92,2.51-7.25,0.59
			c-3.4-2.81-6.52-5.9-9.33-9.29c-6.19-7.46-10.66-15.83-13.15-25.21C213.17,61.96,212.47,56.76,212.48,51.47z"/>
		<path class="st0" d="M341.01,52.86c-0.18-15.53-5.2-27.67-14.8-37.93c-1.72-1.84-3.64-3.49-5.48-5.21
			c-1.15-1.08-1.84-2.34-1.53-3.94c0.13-0.65,0.47-1.3,0.85-1.86c0.49-0.71,1.11-1.34,1.68-1.99c1.97-2.27,4.92-2.54,7.25-0.62
			c6.24,5.16,11.49,11.19,15.62,18.16c3.64,6.14,6.23,12.69,7.67,19.68c1.08,5.24,1.48,10.54,1.14,15.89
			c-0.92,14.22-6.27,26.63-15.37,37.49c-2.82,3.36-5.96,6.4-9.37,9.16c-2.19,1.78-5.22,1.47-7.05-0.69
			c-0.55-0.65-1.11-1.28-1.65-1.94c-1.59-1.91-1.35-4.16,0.5-5.84c2.14-1.94,4.32-3.86,6.29-5.98c7.04-7.59,11.63-16.46,13.41-26.69
			C340.68,57.56,340.84,54.49,341.01,52.86z"/>
		<path class="st0" d="M263.87,51.27c0.04-10.61,8.62-19.17,19.19-19.13c10.69,0.04,19.32,8.65,19.26,19.22
			c-0.06,10.54-8.79,19.11-19.38,19.04C272.25,70.32,263.83,61.88,263.87,51.27z"/>
		<path class="st0" d="M327.84,51.21c-0.12,11.14-4.01,20.82-11.38,29.13c-1.3,1.46-2.72,2.82-4.15,4.15
			c-1.99,1.87-5.15,1.72-7.04-0.27c-0.6-0.63-1.18-1.28-1.78-1.91c-1.92-2.04-1.86-4.39,0.22-6.29c3.01-2.76,5.53-5.9,7.44-9.51
			c2.97-5.62,4.25-11.62,3.69-17.94c-0.78-8.73-4.61-15.97-11-21.89c-0.82-0.76-1.46-1.59-1.65-2.73c-0.19-1.2,0.1-2.26,0.86-3.16
			c0.8-0.95,1.64-1.87,2.52-2.74c1.77-1.73,4.84-1.7,6.84,0.1c7.57,6.82,12.73,15.07,14.67,25.15c0.5,2.59,0.63,5.25,0.93,7.88
			C327.95,51.19,327.9,51.2,327.84,51.21z"/>
		<path class="st0" d="M238.13,52.52c0.25-14.3,5.45-25.15,15.26-33.88c1.57-1.4,3.32-1.9,5.29-1.25c0.77,0.25,1.48,0.81,2.09,1.36
			c0.69,0.62,1.25,1.39,1.84,2.11c1.63,1.96,1.49,4.25-0.41,5.97c-2.14,1.94-4.04,4.08-5.64,6.48c-3.98,5.94-5.96,12.48-5.63,19.63
			c0.42,9.15,4.2,16.78,10.82,23.04c0.28,0.27,0.58,0.53,0.85,0.81c1.4,1.49,1.51,3.7,0.24,5.3c-0.69,0.87-1.42,1.71-2.17,2.52
			c-1.73,1.88-4.97,1.98-7.04,0.15c-7.7-6.81-12.77-15.18-14.69-25.33C238.44,56.81,238.31,54.1,238.13,52.52z"/>
	</g>
</g>
</svg>
